name Walk1.mot
datacolumns 19
datarows 27
range 1.30500000 1.43500000
endheader

                time	   L_ground_force_vx	   L_ground_force_vy	   L_ground_force_vz	   L_ground_force_px	   L_ground_force_py	   L_ground_force_pz	   R_ground_force_vx	   R_ground_force_vy	   R_ground_force_vz	   R_ground_force_px	   R_ground_force_py	   R_ground_force_pz	   L_ground_torque_x	   L_ground_torque_y	   L_ground_torque_z	   R_ground_torque_x	   R_ground_torque_y	   R_ground_torque_z	
          1.30500000	         -9.85068591	        145.52010393	        -27.62926860	         -0.01313776	          0.00000000	         -0.02425435	          0.00000000	         -0.00000000	         -0.00000000	          0.00000000	          0.00000000	          0.00000000	          0.00000000	          0.22003090	          0.00000000	          0.00000000	         -0.00000000	          0.00000000	
          1.31000000	        -17.82701721	        207.35268001	        -37.57790804	         -0.06468720	          0.00000000	         -0.00420751	          0.00000000	          0.00000000	          0.00000000	          0.00000000	          0.00000000	          0.00000000	          0.00000000	          0.38255484	          0.00000000	          0.00000000	         -0.00000000	          0.00000000	
          1.31500000	        -27.70375760	        276.03776424	        -48.31738979	         -0.11317790	          0.00000000	          0.01347611	          0.00000000	          0.00000000	          0.00000000	          0.00000000	          0.00000000	          0.00000000	          0.00000000	          0.55617872	          0.00000000	          0.00000000	         -0.00000000	          0.00000000	
          1.32000000	        -39.40399558	        347.48781768	        -59.00050070	         -0.15587188	          0.00000000	          0.02806572	         -0.00000000	          0.00000000	          0.00000000	          0.00000000	          0.00000000	          0.00000000	          0.00000000	          0.73229373	          0.00000000	          0.00000000	          0.00000000	          0.00000000	
          1.32500000	        -52.63974270	        416.30302730	        -68.41236019	         -0.19133005	          0.00000000	          0.03945121	         -0.00000000	          0.00000000	          0.00000000	          0.00000000	          0.00000000	          0.00000000	          0.00000000	          0.90120063	          0.00000000	          0.00000000	          0.00000000	          0.00000000	
          1.33000000	        -66.85385762	        477.94776464	        -75.21549697	         -0.21919141	          0.00000000	          0.04779334	         -0.00000000	          0.00000000	          0.00000000	          0.00000000	          0.00000000	          0.00000000	          0.00000000	          1.05582356	          0.00000000	          0.00000000	          0.00000000	          0.00000000	
          1.33500000	        -81.23167656	        530.04820579	        -78.39490673	         -0.23982984	          0.00000000	          0.05339908	         -0.00000000	          0.00000000	          0.00000000	          0.00000000	          0.00000000	          0.00000000	          0.00000000	          1.19178609	          0.00000000	          0.00000000	          0.00000000	          0.00000000	
          1.34000000	        -94.85994608	        571.85610297	        -77.53665833	         -0.25405589	          0.00000000	          0.05665909	         -0.00000000	          0.00000000	          0.00000000	          0.00000000	          0.00000000	          0.00000000	          0.00000000	          1.30526283	          0.00000000	          0.00000000	          0.00000000	          0.00000000	
          1.34500000	       -106.95894697	        603.86345483	        -72.84318591	         -0.26288816	          0.00000000	          0.05799550	         -0.00000000	          0.00000000	          0.00000000	          0.00000000	          0.00000000	          0.00000000	          0.00000000	          1.39377498	          0.00000000	          0.00000000	          0.00000000	          0.00000000	
          1.35000000	       -117.09561763	        627.69393938	        -64.96948963	         -0.26739113	          0.00000000	          0.05781885	         -0.00000000	          0.00000001	          0.00000000	          0.00000000	          0.00000000	          0.00000000	          0.00000000	          1.45817436	          0.00000000	          0.00000000	          0.00000000	          0.00000000	
          1.35500000	       -125.29126836	        645.82427619	        -54.79083463	         -0.26856987	          0.00000000	          0.05650037	         -0.00000000	          0.00000001	          0.00000000	          0.00000000	          0.00000000	          0.00000000	          0.00000000	          1.50302286	          0.00000000	          0.00000000	          0.00000000	          0.00000000	
          1.36000000	       -131.95211844	        661.13480130	        -43.23633335	         -0.26731043	          0.00000000	          0.05435975	         -0.00000000	          0.00000001	          0.00000000	          0.00000000	          0.00000000	          0.00000000	          0.00000000	          1.53542634	          0.00000000	          0.00000000	          0.00000000	          0.00000000	
          1.36500000	       -137.63463409	        676.41793435	        -31.21825915	         -0.26435738	          0.00000000	          0.05166773	         -0.00000000	          0.00000001	          0.00000000	          0.00000000	          0.00000000	          0.00000000	          0.00000000	          1.56308221	          0.00000000	          0.00000000	          0.00000000	          0.00000000	
          1.37000000	       -142.79154841	        693.99827674	        -19.58731458	         -0.26031676	          0.00000000	          0.04865347	         -0.00000000	          0.00000001	          0.00000000	          0.00000000	          0.00000000	         -0.00000000	          0.00000000	          1.59238131	          0.00000000	          0.00000000	          0.00000000	          0.00000000	
          1.37500000	       -147.64549026	        715.50274472	         -9.07714631	         -0.25566914	          0.00000000	          0.04550887	         -0.00000000	          0.00000000	          0.00000000	         -0.00000000	          0.00000000	         -0.00000000	          0.00000000	          1.62781914	          0.00000000	          0.00000000	          0.00000000	          0.00000000	
          1.38000000	       -152.20547290	        741.72790847	         -0.25193452	         -0.25078488	          0.00000000	          0.04239121	         -0.00000000	         -0.00000000	         -0.00000000	         -0.00000000	          0.00000000	         -0.00000000	          0.00000000	          1.67298622	          0.00000000	          0.00000000	          0.00000000	          0.00000000	
          1.38500000	       -156.35738796	        772.60123107	          6.53270620	         -0.24593893	          0.00000000	          0.03942446	         -0.00000000	         -0.00000001	         -0.00000000	         -0.00000000	          0.00000000	         -0.00000000	          0.00000000	          1.73110031	          0.00000000	          0.00000000	          0.00000000	          0.00000000	
          1.39000000	       -159.95732495	        807.29431984	         11.14986598	         -0.24132132	          0.00000000	          0.03669692	          0.00000000	         -0.00000002	         -0.00000000	         -0.00000000	          0.00000000	         -0.00000000	          0.00000000	          1.80446349	          0.00000000	          0.00000000	         -0.00000000	          0.00000000	
          1.39500000	       -162.89111198	        844.47094015	         13.68909167	         -0.23704747	          0.00000000	          0.03426027	          0.00000000	         -0.00000003	         -0.00000000	         -0.00000000	          0.00000000	         -0.00000000	          0.00000000	          1.89384890	          0.00000000	          0.00000000	         -0.00000000	          0.00000000	
          1.40000000	       -165.09427196	        882.57394060	         14.40566613	         -0.23317217	          0.00000000	          0.03213162	          0.00000000	         -0.00000004	         -0.00000000	         -0.00000000	          0.00000000	         -0.00000000	          0.00000000	          1.99830959	          0.00000000	          0.00000000	         -0.00000000	          0.00000000	
          1.40500000	       -166.54663389	        920.06925007	         13.65664551	         -0.22970577	          0.00000000	          0.03029948	          0.00000000	         -0.00000006	         -0.00000000	         -0.00000000	          0.00000000	         -0.00000000	          0.00000000	          2.11519043	          0.00000000	          0.00000000	         -0.00000000	          0.00000000	
          1.41000000	       -167.26075394	        955.62167809	         11.85014970	         -0.22662828	          0.00000000	          0.02873251	          0.00000001	         -0.00000008	         -0.00000001	         -0.00000000	          0.00000000	         -0.00000000	          0.00000000	          2.24046953	          0.00000000	          0.00000000	         -0.00000000	          0.00000000	
          1.41500000	       -167.27139148	        988.19139802	          9.41063564	         -0.22390111	          0.00000000	          0.02738838	          0.00000001	         -0.00000010	         -0.00000001	         -0.00000000	          0.00000000	         -0.00000000	          0.00000000	          2.36993757	          0.00000000	          0.00000000	         -0.00000000	          0.00000000	
          1.42000000	       -166.62432864	       1017.06842645	          6.74780689	         -0.22147616	          0.00000000	          0.02622064	          0.00000001	         -0.00000012	         -0.00000001	         -0.00000000	          0.00000000	         -0.00000000	          0.00000000	          2.49968775	          0.00000000	          0.00000000	         -0.00000000	          0.00000000	
          1.42500000	       -165.36421888	       1041.87388525	          4.22572979	         -0.21930330	          0.00000000	          0.02518262	          0.00000001	         -0.00000014	         -0.00000001	         -0.00000000	          0.00000000	         -0.00000000	          0.00000000	          2.62621309	          0.00000000	          0.00000000	         -0.00000000	          0.00000000	
          1.43000000	       -163.52080167	       1062.52349420	          2.13894856	         -0.21733599	          0.00000000	          0.02423140	          0.00000002	         -0.00000015	         -0.00000001	         -0.00000000	          0.00000000	         -0.00000000	          0.00000000	          2.74583228	          0.00000000	          0.00000000	         -0.00000000	          0.00000000	
          1.43500000	       -161.10726883	       1079.15474602	          0.69989409	         -0.21553407	          0.00000000	          0.02333052	          0.00000002	         -0.00000015	         -0.00000001	         -0.00000000	          0.00000000	         -0.00000000	          0.00000000	          2.85526883	          0.00000000	          0.00000000	         -0.00000000	          0.00000000	
